<svg width="532" height="299" viewBox="0 0 532 299" fill="none" xmlns="http://www.w3.org/2000/svg">
<path d="M27.264 92.2C27.264 97.4907 28.288 102.184 30.336 106.28C32.4693 110.291 35.4133 113.448 39.168 115.752C43.008 118.056 47.488 119.208 52.608 119.208C57.6427 119.208 62.0373 118.056 65.792 115.752C69.632 113.448 72.576 110.291 74.624 106.28C76.7573 102.184 77.824 97.4907 77.824 92.2C77.824 86.9093 76.8 82.2587 74.752 78.248C72.704 74.152 69.8027 70.952 66.048 68.648C62.2933 66.344 57.8133 65.192 52.608 65.192C47.488 65.192 43.008 66.344 39.168 68.648C35.4133 70.952 32.4693 74.152 30.336 78.248C28.288 82.2587 27.264 86.9093 27.264 92.2ZM4.352 92.2C4.352 85.288 5.54667 78.9733 7.936 73.256C10.4107 67.5387 13.824 62.5893 18.176 58.408C22.528 54.2267 27.648 51.0267 33.536 48.808C39.424 46.504 45.7813 45.352 52.608 45.352C59.52 45.352 65.8773 46.504 71.68 48.808C77.568 51.0267 82.688 54.2267 87.04 58.408C91.392 62.5893 94.7627 67.5387 97.152 73.256C99.5413 78.9733 100.736 85.288 100.736 92.2C100.736 99.112 99.5413 105.469 97.152 111.272C94.848 117.075 91.52 122.109 87.168 126.376C82.9013 130.643 77.824 133.971 71.936 136.36C66.048 138.664 59.6053 139.816 52.608 139.816C45.5253 139.816 39.04 138.664 33.152 136.36C27.264 133.971 22.144 130.643 17.792 126.376C13.5253 122.109 10.1973 117.075 7.808 111.272C5.504 105.469 4.352 99.112 4.352 92.2Z" fill="#E5E7F4"/>
<path d="M230.512 205.304L225.136 251H202.352L216.816 156.92L254.96 211.576L293.232 156.92L307.696 251H284.912L279.536 205.304L254.96 242.68L230.512 205.304ZM383.296 161.4H404.16V255.48L342.208 200.568V251H321.472V156.92L383.296 211.832V161.4ZM423.097 161.4H445.113V251H423.097V161.4ZM478.433 251V233.208H523.617V251H478.433ZM478.433 179.192V161.4H523.617V179.192H478.433ZM478.433 212.6V195.192H521.057V212.6H478.433ZM464.097 161.4H484.833V251H464.097V161.4Z" fill="#E5E7F4"/>
<rect x="14" y="149" width="505" height="3" fill="#E5E7F4"/>
</svg>
