<svg width="458" height="306" viewBox="0 0 458 306" fill="none" xmlns="http://www.w3.org/2000/svg">
<path d="M231.384 235.728L227.352 270H210.264L221.112 199.44L249.72 240.432L278.424 199.44L289.272 270H272.184L268.152 235.728L249.72 263.76L231.384 235.728ZM345.972 202.8H361.62V273.36L315.156 232.176V270H299.604V199.44L345.972 240.624V202.8ZM375.823 202.8H392.335V270H375.823V202.8ZM417.325 270V256.656H451.213V270H417.325ZM417.325 216.144V202.8H451.213V216.144H417.325ZM417.325 241.2V228.144H449.293V241.2H417.325ZM406.573 202.8H422.125V270H406.573V202.8Z" fill="#080A19"/>
<path d="M53.472 35.8H69.12V106.36L22.656 65.176V103H7.104V32.44L53.472 73.624V35.8ZM93.8828 90.04L95.0348 77.656H128.347L129.403 90.04H93.8828ZM111.451 60.472L102.043 82.168L102.811 85.72L94.4588 103H76.1227L111.451 31.576L146.875 103H128.443L120.379 86.392L120.955 82.264L111.451 60.472ZM153.917 35.8H170.141V103H153.917V35.8ZM164.093 49.144V35.8H177.245C182.941 35.8 187.709 36.696 191.549 38.488C195.453 40.216 198.397 42.712 200.381 45.976C202.365 49.24 203.357 53.176 203.357 57.784C203.357 62.264 202.365 66.168 200.381 69.496C198.397 72.76 195.453 75.288 191.549 77.08C187.709 78.808 182.941 79.672 177.245 79.672H164.093V66.328H177.245C180.509 66.328 183.069 65.592 184.925 64.12C186.781 62.648 187.709 60.536 187.709 57.784C187.709 54.968 186.781 52.824 184.925 51.352C183.069 49.88 180.509 49.144 177.245 49.144H164.093ZM213.729 35.8H230.241V103H213.729V35.8ZM251.871 79.384C253.215 81.816 254.719 83.928 256.383 85.72C258.111 87.512 259.967 88.888 261.951 89.848C263.999 90.808 266.143 91.288 268.383 91.288C270.751 91.288 272.703 90.712 274.239 89.56C275.775 88.344 276.543 86.712 276.543 84.664C276.543 82.936 276.095 81.56 275.199 80.536C274.303 79.448 272.863 78.424 270.879 77.464C268.895 76.504 266.271 75.416 263.007 74.2C261.407 73.624 259.551 72.824 257.439 71.8C255.391 70.776 253.439 69.464 251.583 67.864C249.727 66.2 248.191 64.216 246.975 61.912C245.759 59.544 245.151 56.696 245.151 53.368C245.151 49.4 246.175 45.976 248.223 43.096C250.335 40.216 253.151 38.04 256.671 36.568C260.255 35.032 264.223 34.264 268.575 34.264C273.055 34.264 276.927 35 280.191 36.472C283.519 37.944 286.271 39.8 288.447 42.04C290.623 44.28 292.287 46.552 293.439 48.856L281.055 55.768C280.095 54.168 278.975 52.792 277.695 51.64C276.479 50.424 275.103 49.496 273.567 48.856C272.095 48.152 270.495 47.8 268.767 47.8C266.463 47.8 264.703 48.312 263.487 49.336C262.271 50.296 261.663 51.512 261.663 52.984C261.663 54.52 262.239 55.864 263.391 57.016C264.607 58.168 266.303 59.224 268.479 60.184C270.719 61.144 273.407 62.168 276.543 63.256C278.911 64.152 281.119 65.208 283.167 66.424C285.215 67.576 287.007 68.984 288.543 70.648C290.143 72.312 291.391 74.232 292.287 76.408C293.183 78.584 293.631 81.08 293.631 83.896C293.631 87.288 292.927 90.328 291.519 93.016C290.175 95.64 288.319 97.848 285.951 99.64C283.647 101.432 280.991 102.776 277.983 103.672C275.039 104.632 271.999 105.112 268.863 105.112C264.511 105.112 260.447 104.344 256.671 102.808C252.959 101.208 249.727 99.064 246.975 96.376C244.223 93.688 242.079 90.744 240.543 87.544L251.871 79.384ZM302.847 50.296V35.8H355.551L323.775 89.08H352.095V103H298.239L329.535 50.296H302.847Z" fill="#080A19"/>
<path d="M214.104 117.8H230.808V185H214.104V117.8ZM238.104 185H224.856V170.6H237.528C240.088 170.6 242.552 170.28 244.92 169.64C247.352 169 249.464 167.944 251.256 166.472C253.112 165 254.584 163.048 255.672 160.616C256.76 158.12 257.304 155.048 257.304 151.4C257.304 147.752 256.76 144.712 255.672 142.28C254.584 139.784 253.112 137.8 251.256 136.328C249.464 134.856 247.352 133.8 244.92 133.16C242.552 132.52 240.088 132.2 237.528 132.2H224.856V117.8H238.104C245.464 117.8 251.832 119.176 257.208 121.928C262.584 124.68 266.744 128.552 269.688 133.544C272.632 138.536 274.104 144.488 274.104 151.4C274.104 158.248 272.632 164.2 269.688 169.256C266.744 174.248 262.584 178.12 257.208 180.872C251.832 183.624 245.464 185 238.104 185ZM297.854 151.4C297.854 155.368 298.622 158.888 300.158 161.96C301.758 164.968 303.966 167.336 306.782 169.064C309.662 170.792 313.022 171.656 316.862 171.656C320.638 171.656 323.934 170.792 326.75 169.064C329.63 167.336 331.838 164.968 333.374 161.96C334.974 158.888 335.774 155.368 335.774 151.4C335.774 147.432 335.006 143.944 333.47 140.936C331.934 137.864 329.758 135.464 326.942 133.736C324.126 132.008 320.766 131.144 316.862 131.144C313.022 131.144 309.662 132.008 306.782 133.736C303.966 135.464 301.758 137.864 300.158 140.936C298.622 143.944 297.854 147.432 297.854 151.4ZM280.67 151.4C280.67 146.216 281.566 141.48 283.358 137.192C285.214 132.904 287.774 129.192 291.038 126.056C294.302 122.92 298.142 120.52 302.558 118.856C306.974 117.128 311.742 116.264 316.862 116.264C322.046 116.264 326.814 117.128 331.166 118.856C335.582 120.52 339.422 122.92 342.686 126.056C345.95 129.192 348.478 132.904 350.27 137.192C352.062 141.48 352.958 146.216 352.958 151.4C352.958 156.584 352.062 161.352 350.27 165.704C348.542 170.056 346.046 173.832 342.782 177.032C339.582 180.232 335.774 182.728 331.358 184.52C326.942 186.248 322.11 187.112 316.862 187.112C311.55 187.112 306.686 186.248 302.27 184.52C297.854 182.728 294.014 180.232 290.75 177.032C287.55 173.832 285.054 170.056 283.262 165.704C281.534 161.352 280.67 156.584 280.67 151.4Z" fill="#080A19"/>
</svg>
